<?xml version="1.0" standalone="no"?>
<!DOCTYPE svg PUBLIC "-//W3C//DTD SVG 20010904//EN"
 "http://www.w3.org/TR/2001/REC-SVG-20010904/DTD/svg10.dtd">
<svg version="1.0" xmlns="http://www.w3.org/2000/svg"
 width="1280.000000pt" height="640.000000pt" viewBox="0 0 1280.000000 640.000000"
 preserveAspectRatio="xMidYMid meet">
<g transform="translate(0.000000,640.000000) scale(0.100000,-0.100000)"
fill="#000000" stroke="none">
<path d="M4343 5324 c-46 -65 -72 -90 -150 -140 -48 -32 -89 -67 -98 -84 -8
-15 -26 -77 -40 -137 -14 -59 -29 -114 -34 -122 -5 -7 -30 -16 -56 -18 -45 -6
-46 -7 -40 -32 18 -63 16 -180 -3 -282 -11 -57 -27 -165 -36 -239 -20 -165
-26 -198 -61 -325 l-27 -100 18 -239 c18 -261 15 -366 -15 -479 -41 -153 -54
-220 -57 -309 -4 -128 -37 -238 -131 -435 -15 -32 -14 -34 8 -53 13 -10 27
-19 32 -20 9 0 10 -40 1 -40 -4 0 -17 11 -30 25 -13 14 -34 25 -47 25 -13 0
-32 7 -43 15 -10 8 -27 15 -36 15 -27 0 -22 23 24 111 50 97 51 122 14 354
-25 150 -67 306 -101 372 -8 15 -15 44 -15 63 -1 43 -34 218 -43 227 -4 3 -7
-19 -7 -50 0 -77 -21 -76 -51 2 -13 33 -29 68 -36 77 -24 33 -27 4 -5 -49 40
-96 21 -121 -27 -34 -37 66 -62 100 -68 94 -2 -3 2 -18 10 -34 26 -51 30 -73
13 -73 -9 0 -16 -2 -16 -5 0 -2 19 -42 43 -87 l42 -83 -2 -364 -2 -364 -28
-39 c-15 -22 -44 -48 -65 -59 -21 -11 -51 -34 -68 -53 -17 -19 -49 -38 -73
-45 -23 -7 -64 -24 -90 -37 -27 -13 -50 -24 -52 -24 -2 0 -13 15 -24 34 -16
25 -21 50 -21 102 -1 89 -21 134 -95 203 -56 54 -57 55 -50 100 3 25 11 69 17
97 11 53 3 79 -44 147 -24 33 -64 36 -102 6 -29 -23 -35 -63 -11 -73 13 -5 15
-21 13 -88 l-3 -83 -50 3 c-47 3 -52 1 -90 -37 -21 -23 -45 -41 -52 -41 -23 0
-59 183 -78 402 -6 62 -4 70 19 101 14 19 26 39 26 45 0 6 12 24 26 41 35 42
25 64 -11 23 -59 -66 -107 -26 -119 100 -9 81 -14 100 -28 92 -6 -4 -7 -24 -4
-48 15 -99 -24 -101 -83 -6 -24 39 -46 69 -49 66 -3 -3 3 -26 13 -51 9 -26 14
-49 11 -52 -4 -4 -24 11 -46 32 -22 21 -42 36 -45 34 -2 -3 11 -28 30 -57 19
-28 35 -56 35 -62 0 -15 -22 -12 -48 6 -45 31 -42 8 3 -26 48 -36 125 -150
125 -184 0 -11 -7 -24 -16 -30 -13 -10 -13 -16 -3 -41 6 -17 15 -93 19 -170 4
-78 14 -164 23 -195 25 -87 50 -212 50 -250 0 -67 -16 -165 -29 -181 -11 -13
-11 -18 0 -35 7 -10 16 -39 19 -64 4 -25 9 -64 13 -87 5 -37 3 -43 -20 -58
-20 -14 -38 -16 -79 -11 -40 5 -65 3 -96 -10 -57 -23 -125 -13 -204 28 -67 36
-96 73 -73 96 10 10 11 23 3 57 -8 33 -7 55 3 84 7 22 9 48 5 58 -4 10 -9 50
-10 89 -2 80 -30 141 -85 188 -70 58 -144 57 -229 -5 -52 -37 -70 -77 -75
-166 -2 -38 -7 -85 -11 -105 -6 -30 -2 -47 17 -85 14 -27 28 -76 32 -111 7
-60 6 -62 -18 -72 -14 -5 -55 -14 -91 -21 l-65 -11 0 -53 0 -53 -62 -45 c-81
-58 -167 -141 -203 -195 -28 -42 -28 -45 -29 -205 -1 -144 -3 -166 -21 -197
-16 -26 -32 -38 -65 -47 -24 -7 -80 -30 -125 -51 -44 -21 -91 -44 -105 -50
-18 -8 1440 -11 5406 -11 l5432 -1 6 23 c3 12 6 32 6 44 0 26 4 29 51 38 l36
7 24 -56 23 -56 448 0 c246 0 448 3 448 6 0 3 -7 13 -16 22 -15 14 -15 17 2
29 26 19 6 34 -50 40 -26 3 -49 9 -52 14 -3 5 10 22 28 38 18 16 30 33 26 37
-12 12 -138 -48 -174 -84 -32 -31 -37 -32 -112 -32 -67 0 -83 3 -111 24 -18
14 -39 22 -46 20 -39 -15 -155 47 -181 98 -8 15 -25 38 -37 50 -13 13 -36 51
-50 86 -23 54 -27 77 -27 163 0 146 10 139 -253 178 -113 16 -228 102 -184
136 9 6 11 19 6 35 -11 40 -10 89 3 109 8 14 8 29 0 64 -7 25 -9 59 -6 76 8
41 -18 109 -62 162 -19 23 -34 42 -34 44 0 2 28 61 63 131 43 89 76 142 110
177 26 26 47 51 47 54 0 3 -11 14 -25 25 -14 11 -25 27 -25 35 0 25 71 146 97
166 31 25 54 82 47 116 -4 14 -18 41 -31 59 -14 18 -22 40 -19 47 10 27 -22
16 -54 -17 -26 -28 -60 -108 -60 -142 0 -6 -15 -47 -33 -91 -31 -75 -35 -80
-65 -83 -23 -2 -32 -8 -32 -21 0 -10 -32 -81 -71 -157 -77 -150 -109 -205
-274 -459 -27 -43 -57 -91 -66 -108 -19 -36 -57 -54 -74 -35 -7 7 -26 65 -44
128 -66 233 -121 308 -237 318 -69 6 -105 -9 -155 -66 -92 -105 -128 -241 -95
-357 13 -42 14 -61 6 -69 -16 -16 -44 6 -48 37 -2 14 -9 31 -17 37 -9 7 -12
23 -8 44 3 21 -1 45 -12 66 -14 27 -16 47 -10 99 3 36 8 109 11 161 2 52 8
120 14 150 6 30 15 114 20 185 5 72 14 157 20 189 9 52 9 61 -5 69 -13 7 -15
19 -9 65 12 103 22 117 106 144 67 21 73 25 76 53 4 34 -17 135 -28 135 -4 0
-16 -12 -25 -27 -21 -33 -43 -53 -110 -97 -27 -18 -55 -39 -62 -47 -7 -8 -24
-59 -38 -114 -14 -55 -31 -103 -38 -107 -6 -4 -25 -8 -41 -8 -25 0 -27 -3 -21
-22 16 -55 16 -119 -3 -218 -11 -58 -25 -152 -32 -210 -6 -58 -23 -147 -37
-199 -25 -93 -25 -93 -13 -272 7 -98 10 -185 6 -194 -4 -13 -10 -14 -26 -5
-29 15 -46 62 -28 74 11 7 12 18 4 57 -7 36 -7 58 3 84 9 26 10 44 2 68 -6 17
-10 55 -10 82 2 61 -21 118 -64 164 -67 70 -142 79 -227 29 -74 -45 -90 -80
-102 -223 -9 -113 -9 -115 16 -158 14 -24 25 -55 25 -68 -1 -13 1 -41 6 -61 7
-36 6 -37 -32 -47 -21 -5 -54 -12 -73 -16 -70 -13 -70 -13 -70 -64 0 -52 -21
-84 -42 -63 -12 12 19 145 55 227 20 47 21 67 23 360 l2 310 30 90 c18 53 37
140 46 212 17 128 34 194 66 253 32 60 62 136 49 123 -32 -32 -39 1 -13 62 8
20 13 42 11 48 -2 6 -11 -8 -20 -31 -18 -46 -43 -59 -33 -17 8 32 18 123 12
110 -3 -5 -12 -36 -21 -67 -11 -38 -22 -58 -32 -58 -13 0 -14 11 -8 73 9 90 0
84 -20 -13 -25 -119 -62 -154 -90 -86 -42 99 -22 -28 22 -143 19 -50 12 -100
-37 -256 -16 -49 -49 -178 -75 -285 -25 -107 -51 -215 -57 -240 -6 -25 -13
-61 -17 -80 -7 -40 -36 -53 -46 -20 -3 11 -1 37 6 57 15 46 6 134 -18 176 -11
18 -43 47 -73 65 -49 30 -61 33 -108 28 -66 -6 -90 -21 -131 -82 -26 -40 -31
-57 -31 -106 0 -40 -4 -58 -12 -57 -15 0 -78 83 -78 102 0 7 -9 30 -20 52 -11
22 -20 45 -20 53 0 7 -9 31 -21 53 -11 22 -24 76 -29 122 -7 57 -23 116 -53
192 -41 102 -65 178 -97 298 -9 35 -11 91 -7 199 4 88 2 170 -4 197 -23 108
-49 89 -49 -36 0 -46 -4 -83 -9 -83 -5 0 -16 19 -23 42 -14 40 -14 37 -16 -90
-2 -91 2 -149 12 -185 8 -28 17 -97 21 -151 12 -180 59 -415 131 -650 30 -96
33 -113 23 -151 -11 -43 -10 -45 29 -92 46 -55 67 -99 51 -109 -33 -20 -173
49 -190 93 -8 21 -7 29 4 35 12 6 12 16 4 53 -8 33 -7 55 2 83 8 23 10 49 6
63 -5 13 -9 53 -10 89 -4 125 -93 230 -196 230 -40 0 -121 -42 -153 -80 -30
-36 -34 -50 -40 -140 -3 -36 -8 -82 -11 -102 -5 -25 -2 -47 9 -69 25 -49 20
-51 -39 -20 -30 16 -106 41 -169 56 -63 15 -120 32 -125 39 -7 8 -1 41 20 106
22 67 33 130 41 216 l10 121 -31 61 c-24 48 -37 63 -59 67 -15 3 -40 12 -55
20 -16 8 -54 15 -86 15 -54 0 -59 -2 -98 -42 -60 -63 -79 -109 -110 -269 -3
-18 6 -49 26 -90 31 -65 36 -85 25 -113 -10 -27 -31 -18 -127 52 -118 88 -183
165 -235 275 -22 48 -63 125 -91 170 -28 46 -69 123 -92 171 -48 100 -55 160
-30 273 l14 62 -35 58 c-28 48 -39 59 -64 61 -38 4 -84 -31 -84 -63 0 -12 7
-25 15 -29 11 -4 15 -23 15 -80 0 -51 8 -100 24 -153 14 -43 36 -125 51 -183
55 -223 154 -520 209 -631 37 -73 114 -189 126 -189 5 0 10 -13 10 -30 0 -40
-38 -201 -52 -217 -25 -30 -190 30 -224 82 -14 22 -15 30 -5 49 10 17 10 33 2
61 -8 29 -7 46 5 74 11 28 12 44 4 65 -5 15 -10 53 -10 85 0 97 -47 177 -125
212 -67 31 -116 21 -212 -41 -12 -8 -24 -12 -27 -9 -8 7 20 207 39 280 20 75
38 99 75 99 44 0 71 29 77 83 5 43 4 47 -20 56 -14 5 -27 16 -29 23 -3 8 -21
-2 -53 -30 -26 -23 -51 -42 -55 -42 -12 0 -46 -80 -54 -125 -6 -34 -121 -268
-147 -301 -12 -15 -79 -28 -90 -17 -4 4 -17 64 -28 133 -23 140 -52 249 -87
329 -13 29 -24 65 -24 80 0 33 -36 221 -44 228 -3 4 -6 -17 -6 -45 0 -86 -27
-74 -65 30 -20 54 -45 83 -45 52 0 -11 9 -39 20 -63 21 -46 26 -81 11 -81 -5
0 -28 33 -50 74 -58 106 -78 115 -39 18 11 -28 11 -34 -2 -42 -13 -8 -8 -22
28 -92 52 -102 57 -132 23 -136 -17 -3 -30 4 -42 19 l-17 23 -12 -26 c-7 -14
-23 -31 -36 -37 -13 -6 -24 -19 -24 -29 0 -10 -13 -31 -29 -46 -16 -16 -32
-39 -35 -52 -4 -13 -40 -95 -82 -181 -88 -186 -117 -277 -108 -345 5 -40 4
-48 -9 -48 -9 0 -19 9 -22 21 -10 30 -94 122 -127 138 -16 8 -33 22 -38 32 -6
9 -26 23 -45 29 -19 6 -35 17 -35 24 0 21 69 120 95 135 32 20 31 30 -2 57
l-28 23 35 67 c19 37 45 77 58 88 54 46 61 110 18 171 -11 16 -20 36 -18 42 5
23 -16 14 -47 -19 -16 -17 -35 -52 -41 -77 -15 -60 -38 -126 -62 -178 -14 -31
-26 -43 -45 -45 -18 -2 -28 -12 -37 -38 -22 -62 -134 -265 -147 -265 -14 0
-41 104 -31 120 3 5 20 28 37 50 70 88 148 211 165 261 21 59 76 139 140 199
63 60 134 209 154 321 16 95 37 145 162 399 83 166 123 226 172 255 17 11 32
23 32 28 0 4 -16 23 -35 42 -19 19 -35 41 -35 49 0 22 99 201 110 201 15 0 51
43 66 80 18 41 10 122 -12 141 -8 6 -14 17 -14 25 0 7 -9 16 -20 19 -21 7 -27
30 -10 40 18 11 10 23 -12 18 -40 -9 -100 -83 -120 -146 -10 -32 -18 -66 -18
-74 0 -24 -80 -220 -94 -232 -7 -6 -25 -9 -40 -8 -25 2 -30 -3 -41 -39 -11
-39 -20 -58 -60 -134 -10 -19 -46 -89 -81 -155 -34 -66 -82 -150 -106 -187
-66 -103 -101 -159 -124 -198 -11 -19 -47 -75 -80 -123 -32 -48 -69 -107 -80
-129 -22 -42 -41 -56 -80 -57 -18 -1 -24 8 -33 47 -23 94 -104 338 -127 384
-53 105 -117 151 -225 163 -106 11 -167 -26 -250 -152 -81 -125 -110 -250 -86
-381 10 -55 -11 -66 -50 -27 -22 21 -27 34 -24 66 1 22 -5 60 -15 84 -14 38
-16 63 -10 148 4 56 9 156 11 222 3 66 12 147 19 180 8 33 18 129 22 213 4 84
11 155 15 158 5 3 9 26 9 52 1 26 7 64 14 84 12 35 12 38 -11 58 -27 23 -26
13 -7 155 9 66 29 83 135 119 l94 31 -2 74 c-1 41 -7 79 -13 85 -5 5 -10 23
-10 38 0 35 -14 36 -37 2z m1535 -2375 c1 -112 0 -213 -2 -225 -5 -18 -15 -22
-83 -27 -43 -4 -90 -10 -105 -13 -27 -6 -28 -5 -28 32 0 50 24 171 50 252 11
35 20 72 20 82 0 9 9 29 20 43 21 26 98 69 115 64 6 -2 11 -83 13 -208z m518
-408 c-6 -69 -5 -83 15 -121 12 -24 23 -57 24 -74 1 -17 5 -45 9 -63 7 -29 5
-32 -26 -42 -18 -5 -57 -13 -85 -17 -60 -7 -62 -3 -42 69 11 40 17 44 38 25
11 -11 13 -10 7 5 -19 55 -17 96 9 187 31 107 32 110 47 110 7 0 8 -25 4 -79z
m-910 -125 c10 -39 1 -81 -19 -84 -24 -5 -32 23 -18 69 13 44 28 50 37 15z
m-1687 -299 c34 -11 36 -14 39 -62 2 -34 -5 -74 -23 -125 -15 -41 -31 -106
-37 -145 -6 -38 -15 -73 -20 -76 -14 -9 -130 19 -146 35 -11 10 -9 22 7 67 30
80 54 188 52 235 -1 22 3 53 9 68 9 26 13 28 47 21 19 -3 52 -12 72 -18z
m-535 -154 c39 -82 45 -135 14 -141 -15 -3 -135 77 -150 101 -3 5 -4 17 -1 26
5 16 82 90 94 91 4 0 23 -35 43 -77z m1543 -410 c19 -74 -10 -229 -46 -241
-11 -4 -13 14 -7 109 4 63 10 124 13 137 7 31 31 28 40 -5z m3823 -13 c0 -5
-4 -10 -10 -10 -5 0 -10 5 -10 10 0 6 5 10 10 10 6 0 10 -4 10 -10z m-6570
-200 c9 -17 7 -22 -16 -31 -36 -13 -68 -8 -72 12 -2 10 8 19 30 26 46 15 46
15 58 -7z m-78 -92 c3 -7 2 -24 -2 -38 l-6 -25 -12 22 c-12 21 -7 53 8 53 4 0
10 -6 12 -12z"/>
<path d="M180 1123 c1 -30 57 -63 108 -63 54 0 47 15 -18 34 -26 8 -58 19 -69
26 -12 6 -21 7 -21 3z"/>
</g>
</svg>
